<svg width="253" height="234" viewBox="0 0 253 234" fill="none" xmlns="http://www.w3.org/2000/svg">
<circle cx="127.5" cy="116.5" r="52.5" fill="white"/>
<line x1="5.40381" y1="130.763" x2="122.404" y2="13.7634" stroke="white" stroke-width="13"/>
<line x1="248.404" y1="130.596" x2="128.404" y2="10.5962" stroke="white" stroke-width="13"/>
<path d="M126.994 0L136.185 9.19129L139.99 13.0514L137 21.0613L127.475 18.0366L126.975 18.5366L125.871 19.5057L116.679 10.3145L126.994 0Z" fill="white"/>
<path d="M11.8668 232V187.2H33.4348C37.6161 187.2 41.2214 187.883 44.2508 189.248C47.3228 190.613 49.6908 192.576 51.3548 195.136C53.0188 197.653 53.8508 200.64 53.8508 204.096C53.8508 207.552 53.0188 210.539 51.3548 213.056C49.6908 215.531 47.3228 217.429 44.2508 218.752C41.2214 220.075 37.6161 220.736 33.4348 220.736H20.2508L26.9708 214.528V232H11.8668ZM38.6828 232L27.6748 215.68H43.6748L54.8108 232H38.6828ZM26.9708 216.192L20.2508 209.344H32.4748C34.5654 209.344 36.1014 208.875 37.0828 207.936C38.1068 206.997 38.6188 205.717 38.6188 204.096C38.6188 202.475 38.1068 201.195 37.0828 200.256C36.1014 199.317 34.5654 198.848 32.4748 198.848H20.2508L26.9708 192V216.192ZM80.9943 233.024C74.1249 233.024 68.7703 231.168 64.9303 227.456C61.0903 223.744 59.1703 218.539 59.1703 211.84V187.2H74.2743V211.392C74.2743 214.805 74.8929 217.237 76.1303 218.688C77.3676 220.096 79.0316 220.8 81.1223 220.8C83.2556 220.8 84.9196 220.096 86.1143 218.688C87.3516 217.237 87.9703 214.805 87.9703 211.392V187.2H102.818V211.84C102.818 218.539 100.898 223.744 97.0583 227.456C93.2183 231.168 87.8636 233.024 80.9943 233.024ZM103.94 232L123.524 187.2H138.372L157.956 232H142.34L127.876 194.368H133.764L119.3 232H103.94ZM115.588 224.192L119.428 213.312H140.036L143.876 224.192H115.588ZM173.871 222.4L173.039 205.824L189.935 187.2H206.383L187.439 208.064L179.055 216.64L173.871 222.4ZM160.367 232V187.2H175.215V232H160.367ZM189.807 232L176.623 214.592L186.415 204.224L207.279 232H189.807ZM225.071 233.024C221.316 233.024 217.689 232.597 214.191 231.744C210.692 230.891 207.812 229.781 205.551 228.416L210.415 217.408C212.548 218.645 214.916 219.648 217.519 220.416C220.164 221.141 222.724 221.504 225.199 221.504C226.649 221.504 227.78 221.419 228.591 221.248C229.444 221.035 230.063 220.757 230.447 220.416C230.831 220.032 231.023 219.584 231.023 219.072C231.023 218.261 230.575 217.621 229.679 217.152C228.783 216.683 227.588 216.299 226.095 216C224.644 215.659 223.044 215.317 221.295 214.976C219.545 214.592 217.775 214.101 215.983 213.504C214.233 212.907 212.612 212.117 211.119 211.136C209.668 210.155 208.495 208.875 207.599 207.296C206.703 205.675 206.255 203.669 206.255 201.28C206.255 198.507 207.023 195.989 208.559 193.728C210.137 191.424 212.463 189.589 215.535 188.224C218.649 186.859 222.511 186.176 227.119 186.176C230.148 186.176 233.135 186.496 236.079 187.136C239.023 187.776 241.668 188.757 244.015 190.08L239.471 201.024C237.252 199.915 235.097 199.083 233.007 198.528C230.959 197.973 228.953 197.696 226.991 197.696C225.54 197.696 224.388 197.824 223.535 198.08C222.681 198.336 222.063 198.677 221.679 199.104C221.337 199.531 221.167 200 221.167 200.512C221.167 201.28 221.615 201.899 222.511 202.368C223.407 202.795 224.58 203.157 226.031 203.456C227.524 203.755 229.145 204.075 230.895 204.416C232.687 204.757 234.457 205.227 236.207 205.824C237.956 206.421 239.556 207.211 241.007 208.192C242.5 209.173 243.695 210.453 244.591 212.032C245.487 213.611 245.935 215.573 245.935 217.92C245.935 220.651 245.145 223.168 243.567 225.472C242.031 227.733 239.727 229.568 236.655 230.976C233.583 232.341 229.721 233.024 225.071 233.024Z" fill="white"/>
</svg>
