<svg width="54" height="45" viewBox="0 0 54 45" fill="none" xmlns="http://www.w3.org/2000/svg">
<path d="M49.3963 0.888445C49.3963 0.888445 54.3917 -1.01613 53.9753 3.60926C53.8366 5.51386 52.5878 12.1799 51.6164 19.3901L48.2862 40.7485C48.2862 40.7485 48.0087 43.8774 45.511 44.4216C43.0132 44.9657 39.2668 42.5171 38.5729 41.9729C38.0178 41.5648 28.1659 35.4429 24.6968 32.45C23.7254 31.6338 22.6153 30.0012 24.8355 28.0967L39.4055 14.4926C41.0706 12.8601 42.7358 9.05095 35.7976 13.6764L16.3711 26.6003C16.3711 26.6003 14.151 27.9606 9.98821 26.7363L0.968685 24.0155C0.968685 24.0155 -2.36159 21.9749 3.32762 19.9342C17.2038 13.5402 34.2714 7.01024 49.3963 0.888445Z" fill="white"/>
</svg>
