<svg width="39" height="45" viewBox="0 0 39 45" fill="none" xmlns="http://www.w3.org/2000/svg">
<path d="M20.4832 0.0375177C22.9332 1.42559e-07 25.3653 0.0195091 27.7959 0C27.8767 3.04792 29.11 5.7912 31.0721 7.82315L31.0691 7.82015C33.1809 9.72754 35.9288 10.9641 38.9581 11.1742L39 11.1772V18.7347C36.1384 18.6627 33.4473 18.0009 31.0212 16.8634L31.144 16.9144C29.9706 16.3486 28.9783 15.7679 28.0354 15.1196L28.1132 15.1706C28.0952 20.6466 28.1312 26.1227 28.0758 31.5792C27.9216 34.36 26.9997 36.8962 25.521 39.0137L25.5509 38.9672C23.0784 42.5178 19.0733 44.8484 14.5189 44.9865H14.498C14.3139 44.9955 14.0969 45 13.8783 45C11.2891 45 8.86897 44.2767 6.80656 43.0206L6.86643 43.0551C3.11277 40.7905 0.523524 36.9157 0.0445885 32.4091L0.0386019 32.3476C0.00118507 31.4097 -0.0167751 30.4717 0.0206417 29.5533C0.754012 22.3814 6.74669 16.8334 14.031 16.8334C14.8497 16.8334 15.6519 16.9039 16.4317 17.0375L16.3479 17.0254C16.3853 19.8002 16.273 22.5765 16.273 25.3513C15.6399 25.1217 14.9095 24.9882 14.1477 24.9882C11.352 24.9882 8.97374 26.78 8.0937 29.2817L8.08023 29.3267C7.88117 29.9675 7.76593 30.7043 7.76593 31.4667C7.76593 31.7758 7.78538 32.082 7.8213 32.3821L7.81831 32.3461C8.31521 35.4165 10.9404 37.7336 14.1058 37.7336C14.1971 37.7336 14.2869 37.7321 14.3767 37.7276H14.3633C16.5529 37.6616 18.4537 36.4805 19.5283 34.7352L19.5432 34.7082C19.9429 34.1499 20.2168 33.4746 20.308 32.7408L20.3095 32.7198C20.4966 29.3627 20.4218 26.0251 20.4398 22.6681C20.4577 15.1106 20.4218 7.57103 20.4772 0.0330155L20.4832 0.0375177Z" fill="white"/>
</svg>
