<svg width="69" height="41" viewBox="0 0 69 41" fill="none" xmlns="http://www.w3.org/2000/svg">
<path d="M67.4386 2.81868C66.6622 5.2556 65.6156 7.37678 64.3043 9.30279L64.359 9.21667C63.0708 11.3599 61.5324 13.836 59.7438 16.6451C58.2102 18.8629 57.3984 20.0111 57.3083 20.0895C56.9115 20.5861 56.6354 21.1946 56.5405 21.8634L56.5377 21.8835C56.6153 22.492 56.8971 23.023 57.3083 23.4191L58.4585 24.6993C64.612 31.0122 68.0731 35.3636 68.8419 37.7536C68.9425 38.0177 69 38.322 69 38.6406C69 39.1974 68.8217 39.7112 68.5198 40.1332L68.5255 40.1245C68.0195 40.6441 67.3121 40.9656 66.53 40.9656C66.4437 40.9656 66.3546 40.9627 66.2712 40.9541H66.2827H58.7173C58.7144 40.9541 58.7087 40.9541 58.7029 40.9541C57.7339 40.9541 56.8425 40.6154 56.1437 40.0528L56.1524 40.0585C55.1344 39.2233 54.2287 38.3191 53.4178 37.3374L53.3919 37.303C52.0673 35.8085 50.8921 34.5503 49.8666 33.5285C46.4505 30.2869 43.9297 28.6661 42.304 28.6661C42.2437 28.6604 42.1747 28.6575 42.1028 28.6575C41.6283 28.6575 41.1855 28.8039 40.8203 29.0536L40.8289 29.0479C40.5299 29.421 40.3487 29.9032 40.3487 30.4228C40.3487 30.5261 40.3545 30.6237 40.3689 30.7242V30.7127C40.2912 31.614 40.2452 32.6616 40.2452 33.7208C40.2452 34.0624 40.251 34.4011 40.2596 34.7398V34.691V38.0177C40.2883 38.1526 40.3056 38.3076 40.3056 38.4655C40.3056 39.1601 39.9893 39.7801 39.4947 40.1906L39.4918 40.1934C38.379 40.7015 37.0793 41 35.7077 41C35.4144 41 35.1269 40.9856 34.8422 40.9598L34.8796 40.9627C30.3536 40.8766 26.1554 39.5533 22.5869 37.3231L22.6875 37.3805C18.3427 34.7455 14.7426 31.3155 11.9994 27.2625L11.9217 27.142C9.31655 23.6918 6.88677 19.7939 4.81643 15.6836L4.61514 15.2415C3.40457 12.9395 2.15086 10.1094 1.06968 7.19882L0.89715 6.66781C0.457201 5.35893 0.138023 3.83765 0.00575096 2.26183L0 2.19007C0 0.739592 0.854976 0.014352 2.56493 0.014352H10.1274C10.1965 0.00861136 10.277 0.00574027 10.3604 0.00574027C11.0735 0.00574027 11.732 0.24972 12.2524 0.660179L12.2467 0.654439C12.8218 1.28304 13.2473 2.05517 13.4572 2.91627L13.4659 2.95071C14.8576 6.87447 16.3327 10.1696 18.0293 13.327L17.8366 12.9338C19.2226 15.718 20.7552 18.1147 22.5035 20.3278L22.4374 20.2388C23.971 22.1179 25.1672 23.0575 26.026 23.0575C26.0518 23.0603 26.0835 23.0603 26.118 23.0603C26.5435 23.0603 26.9145 22.8307 27.1158 22.4863L27.1186 22.4805C27.3314 21.9352 27.4551 21.3008 27.4551 20.6406C27.4551 20.5 27.4493 20.3594 27.4378 20.2216V20.2388V9.10473C27.3774 7.79298 27.0554 6.56735 26.5177 5.46801L26.5407 5.52254C26.1841 4.76477 25.7557 4.11033 25.2467 3.52765L25.2553 3.53913C24.7838 3.0684 24.4617 2.45127 24.3611 1.76239L24.3582 1.74517C24.3582 1.25721 24.5825 0.818048 24.9333 0.531014L24.9362 0.528143C25.2841 0.209535 25.7499 0.0172222 26.2589 0.0172222H26.2819H38.2036C38.2669 0.00861115 38.3388 0.00574027 38.4135 0.00574027C38.9742 0.00574027 39.4775 0.258331 39.811 0.654439L39.8139 0.657309C40.1101 1.19693 40.2855 1.84276 40.2855 2.5259C40.2855 2.63498 40.2797 2.74118 40.2711 2.84738V2.83303V17.6813C40.2653 17.7502 40.2625 17.8306 40.2625 17.9109C40.2625 18.4391 40.4091 18.9357 40.6622 19.3576L40.6564 19.3461C40.8663 19.6561 41.2171 19.857 41.6139 19.857C42.12 19.8226 42.583 19.6561 42.9712 19.392L42.9625 19.3978C43.7447 18.861 44.4175 18.2496 45.0012 17.5579L45.0128 17.5435C46.7582 15.5745 48.3684 13.3988 49.7717 11.0853L49.8838 10.8843C50.873 9.24825 51.9427 7.23327 52.9117 5.16375L53.09 4.74181L54.3724 2.18146C54.8181 0.901287 56.0143 0 57.4204 0C57.4751 0 57.5297 -2.0819e-07 57.5843 0.00287014H57.5757H65.1411C67.1846 0.00287014 67.9514 0.941473 67.4415 2.81868H67.4386Z" fill="white"/>
</svg>
