<svg width="61" height="43" viewBox="0 0 61 43" fill="none" xmlns="http://www.w3.org/2000/svg">
<path d="M59.7404 6.74813C59.4015 5.43665 58.7217 4.23901 57.7706 3.27759C56.8194 2.31617 55.6311 1.62541 54.3269 1.27592C46.4202 0.339874 38.4612 -0.0819422 30.5 0.0131129C22.5389 -0.0819422 14.58 0.339874 6.6731 1.27592C5.36898 1.62541 4.18065 2.31617 3.22955 3.27759C2.27842 4.23901 1.59865 5.43665 1.25962 6.74813C0.393499 11.6231 -0.027608 16.5673 0.00155617 21.5191C-0.0290567 26.4965 0.392051 31.4662 1.25962 36.3667C1.61622 37.657 2.30381 38.8307 3.25376 39.7709C4.20367 40.7111 5.38271 41.3846 6.6731 41.724C14.58 42.66 22.5389 43.0821 30.5 42.9868C38.4612 43.0821 46.4202 42.66 54.3269 41.724C55.6174 41.3846 56.7965 40.7111 57.7462 39.7709C58.6962 38.8307 59.3839 37.657 59.7404 36.3667C60.6081 31.4662 61.029 26.4965 60.9985 21.5191C61.0278 16.5673 60.6066 11.6231 59.7404 6.74813ZM24.2478 30.6649V12.4499L40.2214 21.5191L24.2478 30.6266V30.6649Z" fill="white"/>
</svg>
